# xmcd
# 
# Track frame offsets:
#     150
#     18247
#     38595
#     58405
# 
# Disc length: 1006
# 
# Revision: 6
# Processed by: cddbd v1.5.2PL0 Copyright (c) Steve Scherf et al.
# Submitted via: fre:ac v1.0.27
# 
DISCID=2b03ec04
DTITLE=Laith Al Deen - Dein Lied
DYEAR=2002
DGENRE=Soul
TTITLE0=Dein Lied (Radio Edit)
TTITLE1=Dein Lied (Tribe Mix)
TTITLE2=Dein Lied (Album Mix)
TTITLE3=Dein Lied (Sing-selbst-Mix)
EXTD=
EXTT0=
EXTT1=
EXTT2=
EXTT3=
PLAYORDER=
